<svg width="1440" height="320" viewBox="0 0 1440 320" fill="none" xmlns="http://www.w3.org/2000/svg">
  <path
    d="M0 190C120 150 230 145 340 175C455 207 565 253 700 248C823 243 922 190 1040 170C1171 148 1299 167 1440 210V320H0V190Z"
    fill="#E9D9BF"
  />
  <path
    d="M0 235C120 214 219 179 342 183C472 187 587 254 723 259C867 264 981 205 1103 188C1237 170 1336 188 1440 228V320H0V235Z"
    fill="#C9A06A"
  />
  <path
    d="M0 270C133 229 253 213 393 229C508 243 620 287 747 288C875 289 989 250 1111 229C1232 209 1338 211 1440 236V320H0V270Z"
    fill="#2C241F"
  />
</svg>